HIERARCHY
ROOT mixamorig:Hips
{
	OFFSET -0.000008 104.274872 1.554316
	CHANNELS 6 Xposition Yposition Zposition Xrotation Yrotation Zrotation
	JOINT mixamorig:Spine
	{
		OFFSET -0.000005 10.181595 0.131519
		CHANNELS 6 Xposition Yposition Zposition Xrotation Yrotation Zrotation
		JOINT mixamorig:Spine1
		{
			OFFSET -0.000000 9.893959 -1.470707
			CHANNELS 6 Xposition Yposition Zposition Xrotation Yrotation Zrotation
			JOINT mixamorig:Spine2
			{
				OFFSET -0.000000 9.220757 -1.370641
				CHANNELS 6 Xposition Yposition Zposition Xrotation Yrotation Zrotation
				JOINT mixamorig:Neck
				{
					OFFSET 0.000001 16.740417 -2.049036
					CHANNELS 6 Xposition Yposition Zposition Xrotation Yrotation Zrotation
					JOINT mixamorig:Head
					{
						OFFSET 0.000000 9.617874 1.685006
						CHANNELS 6 Xposition Yposition Zposition Xrotation Yrotation Zrotation
						JOINT mixamorig:HeadTop_End
						{
							OFFSET 0.000002 22.037354 7.501101
							CHANNELS 6 Xposition Yposition Zposition Xrotation Yrotation Zrotation
							End Site
							{
								OFFSET 0.000168 2310.654297 -282.823242
							}
						}
					}
				}
				JOINT mixamorig:RightShoulder
				{
					OFFSET -4.569970 11.014908 -2.160885
					CHANNELS 6 Xposition Yposition Zposition Xrotation Yrotation Zrotation
					JOINT mixamorig:RightArm
					{
						OFFSET -10.592851 -0.524811 -2.232101
						CHANNELS 6 Xposition Yposition Zposition Xrotation Yrotation Zrotation
						JOINT mixamorig:RightForeArm
						{
							OFFSET -27.841511 0.000031 -0.000004
							CHANNELS 6 Xposition Yposition Zposition Xrotation Yrotation Zrotation
							JOINT mixamorig:RightHand
							{
								OFFSET -28.328831 -0.000015 0.000015
								CHANNELS 6 Xposition Yposition Zposition Xrotation Yrotation Zrotation
								JOINT mixamorig:RightHandThumb1
								{
									OFFSET -2.464806 -1.573990 2.681852
									CHANNELS 6 Xposition Yposition Zposition Xrotation Yrotation Zrotation
									JOINT mixamorig:RightHandThumb2
									{
										OFFSET -3.215179 -1.872803 1.924282
										CHANNELS 6 Xposition Yposition Zposition Xrotation Yrotation Zrotation
										JOINT mixamorig:RightHandThumb3
										{
											OFFSET -2.654831 -1.527969 1.512609
											CHANNELS 6 Xposition Yposition Zposition Xrotation Yrotation Zrotation
											JOINT mixamorig:RightHandThumb4
											{
												OFFSET -2.018814 -1.152008 1.108052
												CHANNELS 6 Xposition Yposition Zposition Xrotation Yrotation Zrotation
												End Site
												{
													OFFSET -188.809540 -114.533607 132.431396
												}
											}
										}
									}
								}
								JOINT mixamorig:RightHandIndex1
								{
									OFFSET -9.108284 -0.517868 2.259835
									CHANNELS 6 Xposition Yposition Zposition Xrotation Yrotation Zrotation
									JOINT mixamorig:RightHandIndex2
									{
										OFFSET -3.699989 0.000000 0.001215
										CHANNELS 6 Xposition Yposition Zposition Xrotation Yrotation Zrotation
										JOINT mixamorig:RightHandIndex3
										{
											OFFSET -2.850006 0.000031 -0.000522
											CHANNELS 6 Xposition Yposition Zposition Xrotation Yrotation Zrotation
											JOINT mixamorig:RightHandIndex4
											{
												OFFSET -2.772186 -0.000015 -0.000020
												CHANNELS 6 Xposition Yposition Zposition Xrotation Yrotation Zrotation
												End Site
												{
													OFFSET -277.218445 0.000000 -0.050231
												}
											}
										}
									}
								}
								JOINT mixamorig:RightHandMiddle1
								{
									OFFSET -9.532516 -0.000031 -0.000023
									CHANNELS 6 Xposition Yposition Zposition Xrotation Yrotation Zrotation
									JOINT mixamorig:RightHandMiddle2
									{
										OFFSET -3.700005 -0.000015 0.003713
										CHANNELS 6 Xposition Yposition Zposition Xrotation Yrotation Zrotation
										JOINT mixamorig:RightHandMiddle3
										{
											OFFSET -2.949974 0.000015 -0.002054
											CHANNELS 6 Xposition Yposition Zposition Xrotation Yrotation Zrotation
											JOINT mixamorig:RightHandMiddle4
											{
												OFFSET -2.946640 0.000000 -0.000156
												CHANNELS 6 Xposition Yposition Zposition Xrotation Yrotation Zrotation
												End Site
												{
													OFFSET -294.664337 0.000000 -0.113670
												}
											}
										}
									}
								}
								JOINT mixamorig:RightHandRing1
								{
									OFFSET -9.103600 -0.043076 -1.865134
									CHANNELS 6 Xposition Yposition Zposition Xrotation Yrotation Zrotation
									JOINT mixamorig:RightHandRing2
									{
										OFFSET -3.379288 0.000000 -0.001055
										CHANNELS 6 Xposition Yposition Zposition Xrotation Yrotation Zrotation
										JOINT mixamorig:RightHandRing3
										{
											OFFSET -2.889687 -0.000015 0.000379
											CHANNELS 6 Xposition Yposition Zposition Xrotation Yrotation Zrotation
											JOINT mixamorig:RightHandRing4
											{
												OFFSET -2.638809 -0.000015 0.000941
												CHANNELS 6 Xposition Yposition Zposition Xrotation Yrotation Zrotation
												End Site
												{
													OFFSET -263.880371 0.000000 0.516020
												}
											}
										}
									}
								}
								JOINT mixamorig:RightHandPinky1
								{
									OFFSET -8.076683 -0.486710 -3.806280
									CHANNELS 6 Xposition Yposition Zposition Xrotation Yrotation Zrotation
									JOINT mixamorig:RightHandPinky2
									{
										OFFSET -3.600014 -0.000015 -0.003747
										CHANNELS 6 Xposition Yposition Zposition Xrotation Yrotation Zrotation
										JOINT mixamorig:RightHandPinky3
										{
											OFFSET -2.099983 0.000000 -0.005739
											CHANNELS 6 Xposition Yposition Zposition Xrotation Yrotation Zrotation
											JOINT mixamorig:RightHandPinky4
											{
												OFFSET -2.115768 -0.000031 -0.003680
												CHANNELS 6 Xposition Yposition Zposition Xrotation Yrotation Zrotation
												End Site
												{
													OFFSET -211.577087 0.000000 -0.350686
												}
											}
										}
									}
								}
							}
						}
					}
				}
				JOINT mixamorig:LeftShoulder
				{
					OFFSET 4.570447 11.014725 -2.160855
					CHANNELS 6 Xposition Yposition Zposition Xrotation Yrotation Zrotation
					JOINT mixamorig:LeftArm
					{
						OFFSET 10.592371 -0.524597 -2.232119
						CHANNELS 6 Xposition Yposition Zposition Xrotation Yrotation Zrotation
						JOINT mixamorig:LeftForeArm
						{
							OFFSET 27.841532 -0.000031 0.000026
							CHANNELS 6 Xposition Yposition Zposition Xrotation Yrotation Zrotation
							JOINT mixamorig:LeftHand
							{
								OFFSET 28.328846 -0.000061 0.000022
								CHANNELS 6 Xposition Yposition Zposition Xrotation Yrotation Zrotation
								JOINT mixamorig:LeftHandThumb1
								{
									OFFSET 2.466141 -1.576172 2.681732
									CHANNELS 6 Xposition Yposition Zposition Xrotation Yrotation Zrotation
									JOINT mixamorig:LeftHandThumb2
									{
										OFFSET 3.217812 -1.872070 1.916482
										CHANNELS 6 Xposition Yposition Zposition Xrotation Yrotation Zrotation
										JOINT mixamorig:LeftHandThumb3
										{
											OFFSET 2.656029 -1.528778 1.514513
											CHANNELS 6 Xposition Yposition Zposition Xrotation Yrotation Zrotation
											JOINT mixamorig:LeftHandThumb4
											{
												OFFSET 2.020889 -1.154053 1.115139
												CHANNELS 6 Xposition Yposition Zposition Xrotation Yrotation Zrotation
												End Site
												{
													OFFSET 190.885437 -115.081749 130.048782
												}
											}
										}
									}
								}
								JOINT mixamorig:LeftHandIndex1
								{
									OFFSET 9.109314 -0.518021 2.259871
									CHANNELS 6 Xposition Yposition Zposition Xrotation Yrotation Zrotation
									JOINT mixamorig:LeftHandIndex2
									{
										OFFSET 3.699989 0.000000 -0.000322
										CHANNELS 6 Xposition Yposition Zposition Xrotation Yrotation Zrotation
										JOINT mixamorig:LeftHandIndex3
										{
											OFFSET 2.850006 0.000000 0.000352
											CHANNELS 6 Xposition Yposition Zposition Xrotation Yrotation Zrotation
											JOINT mixamorig:LeftHandIndex4
											{
												OFFSET 2.774864 -0.000031 -0.000027
												CHANNELS 6 Xposition Yposition Zposition Xrotation Yrotation Zrotation
												End Site
												{
													OFFSET 277.486267 0.000000 -0.009857
												}
											}
										}
									}
								}
								JOINT mixamorig:LeftHandMiddle1
								{
									OFFSET 9.533394 0.000061 0.000044
									CHANNELS 6 Xposition Yposition Zposition Xrotation Yrotation Zrotation
									JOINT mixamorig:LeftHandMiddle2
									{
										OFFSET 3.699989 -0.000015 -0.000231
										CHANNELS 6 Xposition Yposition Zposition Xrotation Yrotation Zrotation
										JOINT mixamorig:LeftHandMiddle3
										{
											OFFSET 2.949997 -0.000015 -0.000059
											CHANNELS 6 Xposition Yposition Zposition Xrotation Yrotation Zrotation
											JOINT mixamorig:LeftHandMiddle4
											{
												OFFSET 2.952896 0.000031 0.000063
												CHANNELS 6 Xposition Yposition Zposition Xrotation Yrotation Zrotation
												End Site
												{
													OFFSET 295.289337 0.000000 0.022810
												}
											}
										}
									}
								}
								JOINT mixamorig:LeftHandRing1
								{
									OFFSET 9.104523 -0.042999 -1.865074
									CHANNELS 6 Xposition Yposition Zposition Xrotation Yrotation Zrotation
									JOINT mixamorig:LeftHandRing2
									{
										OFFSET 3.150009 -0.000031 0.000043
										CHANNELS 6 Xposition Yposition Zposition Xrotation Yrotation Zrotation
										JOINT mixamorig:LeftHandRing3
										{
											OFFSET 2.949982 -0.000015 0.000040
											CHANNELS 6 Xposition Yposition Zposition Xrotation Yrotation Zrotation
											JOINT mixamorig:LeftHandRing4
											{
												OFFSET 2.644348 0.000000 0.000057
												CHANNELS 6 Xposition Yposition Zposition Xrotation Yrotation Zrotation
												End Site
												{
													OFFSET 264.434631 0.000000 0.012105
												}
											}
										}
									}
								}
								JOINT mixamorig:LeftHandPinky1
								{
									OFFSET 8.077789 -0.486847 -3.806259
									CHANNELS 6 Xposition Yposition Zposition Xrotation Yrotation Zrotation
									JOINT mixamorig:LeftHandPinky2
									{
										OFFSET 3.599953 0.000031 0.014727
										CHANNELS 6 Xposition Yposition Zposition Xrotation Yrotation Zrotation
										JOINT mixamorig:LeftHandPinky3
										{
											OFFSET 2.100021 0.000015 0.007705
											CHANNELS 6 Xposition Yposition Zposition Xrotation Yrotation Zrotation
											JOINT mixamorig:LeftHandPinky4
											{
												OFFSET 2.125504 0.000031 0.007517
												CHANNELS 6 Xposition Yposition Zposition Xrotation Yrotation Zrotation
												End Site
												{
													OFFSET 212.550781 0.000000 0.625752
												}
											}
										}
									}
								}
							}
						}
					}
				}
			}
		}
	}
	JOINT mixamorig:RightUpLeg
	{
		OFFSET -8.207787 -6.751648 -1.599560
		CHANNELS 6 Xposition Yposition Zposition Xrotation Yrotation Zrotation
		JOINT mixamorig:RightLeg
		{
			OFFSET -0.000002 -44.370117 0.345942
			CHANNELS 6 Xposition Yposition Zposition Xrotation Yrotation Zrotation
			JOINT mixamorig:RightFoot
			{
				OFFSET 0.000003 -44.423679 -3.043532
				CHANNELS 6 Xposition Yposition Zposition Xrotation Yrotation Zrotation
				JOINT mixamorig:RightToeBase
				{
					OFFSET -0.000002 -8.728671 10.710558
					CHANNELS 6 Xposition Yposition Zposition Xrotation Yrotation Zrotation
					JOINT mixamorig:RightToe_End
					{
						OFFSET -0.000001 -0.000679 9.278119
						CHANNELS 6 Xposition Yposition Zposition Xrotation Yrotation Zrotation
						End Site
						{
							OFFSET 0.000000 -0.067690 927.812134
						}
					}
				}
			}
		}
	}
	JOINT mixamorig:LeftUpLeg
	{
		OFFSET 8.207793 -6.751686 -1.599556
		CHANNELS 6 Xposition Yposition Zposition Xrotation Yrotation Zrotation
		JOINT mixamorig:LeftLeg
		{
			OFFSET -0.000004 -44.370014 0.346954
			CHANNELS 6 Xposition Yposition Zposition Xrotation Yrotation Zrotation
			JOINT mixamorig:LeftFoot
			{
				OFFSET -0.000001 -44.423672 -3.044401
				CHANNELS 6 Xposition Yposition Zposition Xrotation Yrotation Zrotation
				JOINT mixamorig:LeftToeBase
				{
					OFFSET -0.000002 -8.728669 10.710558
					CHANNELS 6 Xposition Yposition Zposition Xrotation Yrotation Zrotation
					JOINT mixamorig:LeftToe_End
					{
						OFFSET -0.000003 -0.000679 9.278133
						CHANNELS 6 Xposition Yposition Zposition Xrotation Yrotation Zrotation
						End Site
						{
							OFFSET 0.000000 -0.068021 927.813477
						}
					}
				}
			}
		}
	}
}
MOTION
Frames: 3
Frame Time: 0.033333
0.000006 104.270477 1.554256 0.000010 0.000003 -0.000113 -0.000005 10.181587 0.131522 0.000001 -0.000003 0.000084 -0.000000 9.893967 -1.470711 0.000001 0.000000 -0.000000 -0.000000 9.220802 -1.370642 0.000000 -0.000000 -0.000000 0.000001 16.740433 -2.049030 0.000000 -0.000000 -0.000000 0.000000 9.617859 1.685014 0.000000 0.000000 0.000000 0.000002 22.037384 7.501101 0.000000 -0.000000 0.000000 -4.569968 11.014880 -2.160881 0.000008 0.000001 -0.000038 -10.592864 -0.524666 -2.232031 72.888125 5.091947 -3.761291 -27.841528 0.000013 0.000557 -56.972114 118.684195 84.944577 -28.328827 0.000020 0.000024 -0.000316 -0.000045 0.000007 -2.464434 -1.573861 2.682355 -38.277487 -157.494381 11.622481 -3.215265 -1.872549 1.924648 154.317210 33.408569 15.169352 -2.654953 -1.527902 1.513085 151.016849 25.759065 -39.872725 -2.018823 -1.151985 1.108065 -0.000001 0.000000 0.000004 -9.108398 -0.517577 2.260162 104.043472 18.373923 -23.469032 -3.700075 0.000299 0.001529 102.577290 15.722576 -19.519135 -2.850099 0.000364 -0.000229 101.808075 12.335883 -15.150336 -2.772166 -0.000001 -0.000020 0.000002 -0.000000 -0.000005 -9.532604 0.000258 0.000260 96.597692 18.879184 -21.302465 -3.700078 0.000337 0.003995 95.287238 14.407917 -15.679787 -2.950060 0.000345 -0.001790 95.638652 12.001829 -13.226765 -2.946635 0.000014 -0.000171 -0.000000 0.000002 -0.000002 -9.103707 -0.042768 -1.864867 92.578255 20.654536 -21.535660 -3.379333 0.000317 -0.000799 92.570175 11.496384 -12.038762 -2.889737 0.000365 0.000643 97.103905 6.575316 -7.494629 -2.638836 -0.000005 0.000939 -0.000000 0.000004 -0.000002 -8.076775 -0.486393 -3.806027 84.114934 19.636638 -17.608969 -3.600058 0.000278 -0.003522 87.026746 9.444586 -8.627084 -2.100023 0.000314 -0.005514 88.558450 4.968081 -4.632909 -2.115769 -0.000054 -0.003673 0.000001 0.000002 -0.000003 4.570446 11.014691 -2.160851 -0.000018 0.000010 -0.000021 10.592356 -0.524555 -2.232273 69.508281 15.248392 -10.612210 27.841831 0.000111 -0.000210 103.503785 -62.603492 75.290603 28.328840 -0.000029 0.000024 0.000019 -0.000088 -0.000000 2.466012 -1.576170 2.681905 -32.850215 156.552048 -22.391314 3.217810 -1.871771 1.916375 158.315275 -29.219580 11.084149 2.656093 -1.528638 1.514468 142.278619 -27.350833 43.552756 2.020891 -1.154080 1.115147 0.000002 0.000004 0.000006 9.109363 -0.517847 2.259733 89.674155 -16.085587 15.983239 3.700049 0.000179 -0.000457 88.420822 -13.356161 13.012696 2.850037 0.000194 0.000204 86.166306 -11.493677 10.752568 2.774863 -0.000016 -0.000033 0.000002 0.000001 -0.000003 9.533456 0.000229 -0.000102 92.077459 -15.046837 15.586748 3.700047 0.000191 -0.000367 91.806335 -12.079155 12.460353 2.950072 0.000195 -0.000196 92.361998 -14.085638 14.675397 2.952870 -0.000017 0.000064 0.000001 0.000002 0.000001 9.104572 -0.042824 -1.865232 91.797497 -13.985016 14.428126 3.150046 0.000227 -0.000076 95.587111 -11.351957 12.509827 2.950018 0.000204 -0.000060 97.184002 -12.054824 13.657307 2.644329 0.000033 0.000047 0.000001 -0.000001 0.000002 8.077837 -0.486715 -3.806414 80.396852 -16.838588 14.759272 3.600009 0.000191 0.014561 81.380372 -13.701712 12.237808 2.100037 0.000198 0.007543 83.716030 -11.144756 10.419618 2.125517 -0.000027 0.007518 -0.000002 0.000001 -0.000002 -8.207786 -6.751667 -1.599560 -0.077001 -0.000003 0.000080 -0.000002 -44.370110 0.345938 0.153719 -0.000000 -0.000000 0.000000 -44.423679 -3.043532 -0.076700 0.000000 -0.000002 -0.000006 -8.728667 10.710559 -0.000009 -0.000000 -0.000000 -0.000001 -0.000679 9.278123 0.000000 -0.000000 -0.000000 8.207792 -6.751710 -1.599556 -0.074518 -0.000003 0.000081 -0.000002 -44.370014 0.346960 0.148822 0.000002 0.000000 -0.000001 -44.423664 -3.044403 -0.074314 0.000000 -0.000002 -0.000004 -8.728671 10.710558 0.000007 -0.000000 -0.000000 0.000000 -0.000680 9.278137 -0.000000 0.000000 -0.000001 
0.000006 104.270477 1.554256 0.000010 0.000003 -0.000113 -0.000005 10.181587 0.131522 0.000001 -0.000003 0.000084 -0.000000 9.893967 -1.470711 0.000001 0.000000 -0.000000 -0.000000 9.220802 -1.370642 0.000000 -0.000000 -0.000000 0.000001 16.740433 -2.049030 0.000000 -0.000000 -0.000000 0.000000 9.617859 1.685014 0.000000 0.000000 0.000000 0.000002 22.037384 7.501101 0.000000 -0.000000 0.000000 -4.569968 11.014880 -2.160881 0.000008 0.000001 -0.000038 -10.592882 -0.524709 -2.231986 72.005357 15.881681 -11.574801 -27.841534 0.000009 0.000528 -55.809684 113.313439 77.660030 -28.328842 0.000008 0.000023 -0.000318 -0.000044 0.000006 -2.464400 -1.573823 2.682341 -42.531028 -158.314510 2.246459 -3.215235 -1.872515 1.924613 148.858563 33.835890 27.941027 -2.654976 -1.527895 1.513072 148.368101 27.374623 -30.266809 -2.018822 -1.151998 1.108070 -0.000003 0.000002 0.000000 -9.108380 -0.517565 2.260153 105.087166 15.867998 -20.680469 -3.700088 0.000313 0.001530 101.474297 13.222479 -16.111991 -2.850067 0.000374 -0.000229 100.307489 10.756084 -12.871143 -2.772177 0.000002 -0.000023 0.000002 -0.000000 -0.000001 -9.532597 0.000265 0.000268 96.443883 18.193577 -20.483003 -3.700072 0.000318 0.003991 94.579678 13.554179 -14.567445 -2.950084 0.000332 -0.001772 97.409706 11.835639 -13.452286 -2.946632 -0.000000 -0.000153 0.000002 -0.000000 -0.000000 -9.103707 -0.042765 -1.864845 93.902021 20.320926 -21.672257 -3.379343 0.000321 -0.000825 92.688003 10.933358 -11.473747 -2.889761 0.000350 0.000666 99.351331 7.043663 -8.348131 -2.638808 0.000000 0.000939 -0.000002 0.000000 0.000003 -8.076761 -0.486402 -3.806028 85.042241 20.633957 -18.810828 -3.600049 0.000292 -0.003528 85.663099 10.112558 -9.041460 -2.100019 0.000324 -0.005483 88.848610 5.277981 -4.959212 -2.115782 -0.000054 -0.003676 0.000003 -0.000004 -0.000003 4.570446 11.014691 -2.160851 -0.000018 0.000010 -0.000021 10.592362 -0.524541 -2.232275 70.063370 12.267681 -8.616705 27.841829 0.000110 -0.000205 103.942884 -65.958030 79.364107 28.328831 -0.000028 0.000021 0.000020 -0.000087 -0.000000 2.466190 -1.576106 2.681866 -2.038376 161.112333 -80.774910 3.217844 -1.871777 1.916393 166.824816 -26.170338 22.932621 2.656106 -1.528652 1.514486 141.152894 -26.893769 57.412897 2.020876 -1.154082 1.115136 0.000000 0.000002 0.000002 9.109381 -0.517854 2.259753 91.633886 -20.283603 20.844539 3.700027 0.000180 -0.000455 89.570575 -13.499241 13.416228 2.850046 0.000217 0.000207 88.698947 -10.167811 9.939427 2.774885 -0.000049 -0.000039 -0.000001 -0.000005 -0.000002 9.533470 0.000211 -0.000094 91.430510 -19.076215 19.540036 3.700060 0.000189 -0.000393 92.531394 -11.163021 11.661279 2.950048 0.000208 -0.000206 93.872604 -10.698827 11.445815 2.952866 -0.000030 0.000060 0.000000 0.000003 -0.000000 9.104596 -0.042847 -1.865230 91.312136 -18.572944 18.997515 3.150043 0.000198 -0.000107 96.223835 -12.571300 14.005218 2.950009 0.000211 -0.000068 97.997888 -10.490093 12.058145 2.644312 0.000031 0.000060 0.000001 0.000001 -0.000001 8.077837 -0.486715 -3.806409 82.773703 -20.370015 18.530913 3.600010 0.000193 0.014575 83.844499 -17.278854 16.016152 2.100034 0.000202 0.007553 86.064004 -12.358665 11.995650 2.125498 -0.000002 0.007509 -0.000000 0.000002 0.000002 -8.207786 -6.751667 -1.599560 -0.077001 -0.000003 0.000080 -0.000002 -44.370110 0.345938 0.153719 -0.000000 -0.000000 0.000000 -44.423679 -3.043532 -0.076700 0.000000 -0.000002 -0.000006 -8.728667 10.710559 -0.000009 -0.000000 -0.000000 -0.000001 -0.000679 9.278123 0.000000 -0.000000 -0.000000 8.207792 -6.751710 -1.599556 -0.074518 -0.000003 0.000081 -0.000002 -44.370014 0.346960 0.148822 0.000002 0.000000 -0.000001 -44.423664 -3.044403 -0.074314 0.000000 -0.000002 -0.000004 -8.728671 10.710558 0.000007 -0.000000 -0.000000 0.000000 -0.000680 9.278137 -0.000000 0.000000 -0.000001 
0.000006 104.270477 1.554256 0.000010 0.000003 -0.000113 -0.000005 10.181587 0.131522 0.000001 -0.000003 0.000084 -0.000000 9.893967 -1.470711 0.000001 0.000000 -0.000000 -0.000000 9.220802 -1.370642 0.000000 -0.000000 -0.000000 0.000001 16.740433 -2.049030 0.000000 -0.000000 -0.000000 0.000000 9.617859 1.685014 0.000000 0.000000 0.000000 0.000002 22.037384 7.501101 0.000000 -0.000000 0.000000 -4.569968 11.014880 -2.160881 0.000008 0.000001 -0.000038 -10.592881 -0.524715 -2.231974 71.561183 16.414929 -11.869345 -27.841530 0.000023 0.000526 -55.409206 112.686831 76.523479 -28.328829 0.000023 0.000025 -0.000324 -0.000046 0.000007 -2.464422 -1.573786 2.682347 -45.024740 -161.540299 -2.952945 -3.215259 -1.872543 1.924624 150.496047 33.491259 21.790230 -2.654971 -1.527883 1.513064 149.195852 27.330780 -29.592447 -2.018823 -1.151985 1.108074 -0.000003 -0.000004 0.000004 -9.108372 -0.517566 2.260168 104.637549 16.320218 -21.094841 -3.700082 0.000319 0.001551 101.613756 13.793252 -16.846513 -2.850083 0.000361 -0.000216 100.869456 11.258892 -13.605054 -2.772173 0.000001 -0.000019 0.000000 -0.000000 0.000001 -9.532595 0.000261 0.000253 95.649231 19.040559 -21.135821 -3.700097 0.000319 0.003994 94.916496 14.525645 -15.707319 -2.950058 0.000329 -0.001805 98.314665 12.401328 -14.318337 -2.946611 0.000002 -0.000155 0.000000 -0.000001 0.000001 -9.103714 -0.042775 -1.864868 92.444917 20.888744 -21.730358 -3.379351 0.000318 -0.000809 92.880075 11.676721 -12.293127 -2.889762 0.000348 0.000669 100.439188 7.321629 -8.843498 -2.638810 -0.000018 0.000940 -0.000002 -0.000001 0.000000 -8.076761 -0.486403 -3.806015 84.419656 20.840512 -18.798419 -3.600043 0.000274 -0.003527 85.729823 10.498164 -9.408663 -2.100022 0.000312 -0.005485 89.799215 5.526133 -5.288597 -2.115771 -0.000046 -0.003674 -0.000005 0.000002 -0.000005 4.570446 11.014691 -2.160851 -0.000018 0.000010 -0.000021 10.592359 -0.524534 -2.232277 70.139745 10.444863 -7.342817 27.841833 0.000101 -0.000216 104.180377 -65.974293 79.622336 28.328846 -0.000013 0.000024 0.000020 -0.000090 0.000000 2.466227 -1.576058 2.681844 8.583711 165.951248 -99.241890 3.217857 -1.871794 1.916402 168.063280 -24.736491 27.563177 2.656116 -1.528665 1.514493 141.535358 -26.761018 57.250970 2.020891 -1.154070 1.115147 -0.000001 0.000005 0.000002 9.109386 -0.517854 2.259753 92.674759 -21.133162 22.105620 3.700044 0.000167 -0.000459 90.131381 -13.342404 13.389759 2.850057 0.000205 0.000201 88.927526 -10.031735 9.845378 2.774873 -0.000017 -0.000022 0.000002 0.000001 -0.000001 9.533455 0.000234 -0.000072 93.168186 -19.797609 20.889932 3.700042 0.000206 -0.000374 93.035557 -10.748628 11.327254 2.950049 0.000211 -0.000212 94.021304 -10.470325 11.230603 2.952857 -0.000031 0.000065 0.000000 0.000001 0.000001 9.104578 -0.042844 -1.865211 92.829162 -19.096714 20.046696 3.150065 0.000222 -0.000100 96.442667 -12.654586 14.151546 2.950024 0.000210 -0.000063 97.853327 -10.713503 12.283342 2.644321 0.000032 0.000051 0.000002 0.000003 0.000002 8.077835 -0.486718 -3.806411 83.596768 -20.915789 19.289597 3.600001 0.000181 0.014579 84.069151 -17.919020 16.661135 2.100043 0.000195 0.007540 86.057617 -13.129235 12.718691 2.125499 0.000015 0.007513 0.000001 0.000003 -0.000001 -8.207786 -6.751667 -1.599560 -0.077001 -0.000003 0.000080 -0.000002 -44.370110 0.345938 0.153719 -0.000000 -0.000000 0.000000 -44.423679 -3.043532 -0.076700 0.000000 -0.000002 -0.000006 -8.728667 10.710559 -0.000009 -0.000000 -0.000000 -0.000001 -0.000679 9.278123 0.000000 -0.000000 -0.000000 8.207792 -6.751710 -1.599556 -0.074518 -0.000003 0.000081 -0.000002 -44.370014 0.346960 0.148822 0.000002 0.000000 -0.000001 -44.423664 -3.044403 -0.074314 0.000000 -0.000002 -0.000004 -8.728671 10.710558 0.000007 -0.000000 -0.000000 0.000000 -0.000680 9.278137 -0.000000 0.000000 -0.000001 
